# xmcd
#
# Track frame offsets: 
#        150
#        12632
#        25002
#        38406
#        48331
#        57308
#        75097
#        91291
#        99991
#        114555
#        128402
#        138058
#
# Disc length: 2043 seconds
#
# Revision: 0
# Processed by: cddbd v1.5.2PL0 Copyright (c) Steve Scherf et al.
# Submitted via: ExactAudioCopy v1.3
#
DISCID=7f07f90c
DTITLE=Magic Sam Blues Band - The Late Great Magic Sam
DYEAR=1998
DGENRE=Chicago Blues
TTITLE0=High Heel Sneakers
TTITLE1=All Your Love
TTITLE2=Trying To Make It
TTITLE3=Call Me If You Need Me
TTITLE4=Look Out Sam
TTITLE5=Torturing My Soul
TTITLE6=Sometimes
TTITLE7=Back Door Friend
TTITLE8=Feeling Good
TTITLE9=All Your Fault
TTITLE10=Looking Good
TTITLE11=Easy Baby
EXTD=
EXTT0=
EXTT1=
EXTT2=
EXTT3=
EXTT4=
EXTT5=
EXTT6=
EXTT7=
EXTT8=
EXTT9=
EXTT10=
EXTT11=
PLAYORDER=
